#define cpu_width 10
#define cpu_height 7
static unsigned char cpu_bits[] = {
   0x2a, 0x00, 0x7f, 0x00, 0x22, 0x00, 0x63, 0x00, 0x22, 0x00, 0x7f, 0x00,
   0x2a, 0x00 };
