#define dcur_width 8
#define dcur_height 6
static unsigned char dcur_bits[] = {
   0x3c, 0x3c, 0x3c, 0x3c, 0x00, 0x00 };
