#define durg_width 8
#define durg_height 7
static unsigned char durg_bits[] = {
   0x3c, 0x2c, 0x24, 0x3c, 0x00, 0x00, 0x00 };
