#define enter_width 7
#define enter_height 7
static unsigned char enter_bits[] = {
   0x1c, 0x1c, 0x68, 0x3e, 0x09, 0x14, 0x36 };
