#define fan_width 10
#define fan_height 7
static unsigned char fan_bits[] = {
   0x5c, 0x00, 0x62, 0x00, 0x71, 0x00, 0x00, 0x00, 0x47, 0x00, 0x23, 0x00,
   0x1d, 0x00 };
