#define laywide_width 7
#define laywide_height 7
static unsigned char laywide_bits[] = {
   0x7f, 0x41, 0x41, 0x7f, 0x49, 0x49, 0x7f };
