#define mem_width 10
#define mem_height 7
static unsigned char mem_bits[] = {
   0x3f, 0x00, 0x61, 0x00, 0x2d, 0x00, 0x61, 0x00, 0x2d, 0x00, 0x61, 0x00,
   0x3f, 0x00 };
