#define cpu_width 20
#define cpu_height 14
static char cpu_bits[] = {
  0xCC, 0x0C, 0x00, 0xCC, 0x0C, 0x00, 0xFF, 0x3F, 0x00, 0xFF, 0x3F, 0x00,
  0x0C, 0x0C, 0x00, 0x0C, 0x0C, 0x00, 0x0F, 0x3C, 0x00, 0x0F, 0x3C, 0x00,
  0x0C, 0x0C, 0x00, 0x0C, 0x0C, 0x00, 0xFF, 0x3F, 0x00, 0xFF, 0x3F, 0x00,
  0xCC, 0x0C, 0x00, 0xCC, 0x0C, 0x00, };
