#define durg_width 16
#define durg_height 14
static char durg_bits[] = {
  0xF0, 0x0F, 0xF0, 0x0F, 0xF0, 0x0C, 0xF0, 0x0C, 0x30, 0x0C, 0x30, 0x0C,
  0xF0, 0x0F, 0xF0, 0x0F, 0x00, 0x00, 0x00, 0x00, 0x00, 0x00, 0x00, 0x00,
  0x00, 0x00, 0x00, 0x00, };
