#define dvis_width 16
#define dvis_height 12
static char dvis_bits[] = {
  0xF0, 0x0F, 0xF0, 0x0F, 0x30, 0x00, 0x30, 0x00, 0x00, 0x0C, 0x00, 0x0C,
  0xF0, 0x0F, 0xF0, 0x0F, 0x00, 0x00, 0x00, 0x00, 0x00, 0x00, 0x00, 0x00,
  };
