#define enter_width 20
#define enter_height 14
static char enter_bits[] = {
  0xF0, 0x03, 0x00, 0xF0, 0x03, 0x00, 0xF0, 0x03, 0x00, 0xF0, 0x03, 0x00,
  0xC0, 0x3C, 0x00, 0xC0, 0x3C, 0x00, 0xFC, 0x0F, 0x00, 0xFC, 0x0F, 0x00,
  0xC3, 0x00, 0x00, 0xC3, 0x00, 0x00, 0x30, 0x03, 0x00, 0x30, 0x03, 0x00,
  0x3C, 0x0F, 0x00, 0x3C, 0x0F, 0x00, };
