#define fan_width 20
#define fan_height 14
static char fan_bits[] = {
  0xF0, 0x33, 0x00, 0xF0, 0x33, 0x00, 0x0C, 0x3C, 0x00, 0x0C, 0x3C, 0x00,
  0x03, 0x3F, 0x00, 0x03, 0x3F, 0x00, 0x00, 0x00, 0x00, 0x00, 0x00, 0x00,
  0x3F, 0x30, 0x00, 0x3F, 0x30, 0x00, 0x0F, 0x0C, 0x00, 0x0F, 0x0C, 0x00,
  0xF3, 0x03, 0x00, 0xF3, 0x03, 0x00, };
