#define fan_width 20
#define fan_height 14
static unsigned char fan_bits[] = {
   0xe0, 0x31, 0x00, 0xf8, 0x37, 0x00, 0x3c, 0x3f, 0x00, 0x0e, 0x3c, 0x00,
   0x07, 0x3f, 0x00, 0x03, 0x3f, 0x00, 0x00, 0x00, 0x00, 0x00, 0x00, 0x00,
   0x3f, 0x30, 0x00, 0x3f, 0x38, 0x00, 0x0f, 0x1c, 0x00, 0x3f, 0x0f, 0x00,
   0xfb, 0x07, 0x00, 0xe3, 0x01, 0x00 };
