#define layfull_width 14
#define layfull_height 14
static char layfull_bits[] = {
  0xFF, 0x3F, 0xFF, 0x3F, 0x03, 0x30, 0x03, 0x30, 0x03, 0x30, 0x03, 0x30,
  0x03, 0x30, 0x03, 0x30, 0x03, 0x30, 0x03, 0x30, 0x03, 0x30, 0x03, 0x30,
  0xFF, 0x3F, 0xFF, 0x3F, };
