#define laytall_width 14
#define laytall_height 14
static char laytall_bits[] = {
  0xFF, 0x3F, 0xFF, 0x3F, 0xC3, 0x30, 0xC3, 0x30, 0xC3, 0x30, 0xC3, 0x30,
  0xC3, 0x3F, 0xC3, 0x3F, 0xC3, 0x30, 0xC3, 0x30, 0xC3, 0x30, 0xC3, 0x30,
  0xFF, 0x3F, 0xFF, 0x3F, };
