#define laywide_width 14
#define laywide_height 14
static char laywide_bits[] = {
  0xFF, 0x3F, 0xFF, 0x3F, 0x03, 0x30, 0x03, 0x30, 0x03, 0x30, 0x03, 0x30,
  0xFF, 0x3F, 0xFF, 0x3F, 0xC3, 0x30, 0xC3, 0x30, 0xC3, 0x30, 0xC3, 0x30,
  0xFF, 0x3F, 0xFF, 0x3F, };
