#define mb_width 22
#define mb_height 14
static char mb_bits[] = {
  0xFF, 0xFF, 0x00, 0xFF, 0xFF, 0x00, 0x03, 0xC0, 0x00, 0x03, 0xC0, 0x00,
  0x33, 0xCF, 0x00, 0x33, 0xCF, 0x00, 0x03, 0xCF, 0x00, 0x03, 0xCF, 0x00,
  0x0F, 0xC0, 0x00, 0x0F, 0xC0, 0x00, 0x33, 0xC3, 0x00, 0x33, 0xC3, 0x00,
  0xFF, 0xFF, 0x00, 0xFF, 0xFF, 0x00, };
