#define mem_width 20
#define mem_height 14
static char mem_bits[] = {
  0xFF, 0x0F, 0x00, 0xFF, 0x0F, 0x00, 0x03, 0x3C, 0x00, 0x03, 0x3C, 0x00,
  0xF3, 0x0C, 0x00, 0xF3, 0x0C, 0x00, 0x03, 0x3C, 0x00, 0x03, 0x3C, 0x00,
  0xF3, 0x0C, 0x00, 0xF3, 0x0C, 0x00, 0x03, 0x3C, 0x00, 0x03, 0x3C, 0x00,
  0xFF, 0x0F, 0x00, 0xFF, 0x0F, 0x00, };
