#define stb_width 24
#define stb_height 14
static char stb_bits[] = {
  0x00, 0x00, 0x00, 0x00, 0x00, 0x00, 0x00, 0x00, 0x00, 0x00, 0x00, 0x00,
  0x00, 0x00, 0x00, 0x00, 0x00, 0x00, 0xFF, 0xFF, 0x03, 0xFF, 0xFF, 0x03,
  0x03, 0x00, 0x03, 0x03, 0x00, 0x03, 0xF3, 0x33, 0x03, 0xF3, 0x33, 0x03,
  0x03, 0x00, 0x03, 0x03, 0x00, 0x03, };
