#define temp_width 22
#define temp_height 14
static char temp_bits[] = {
  0x0F, 0xC0, 0x00, 0x0F, 0xC0, 0x00, 0x03, 0x30, 0x03, 0x03, 0x30, 0x03,
  0x3F, 0xC0, 0x00, 0x3F, 0xC0, 0x00, 0x03, 0x00, 0x00, 0x03, 0x00, 0x00,
  0x0F, 0x00, 0x00, 0x0F, 0x00, 0x00, 0x03, 0x00, 0x00, 0x03, 0x00, 0x00,
  0x3F, 0x00, 0x00, 0x3F, 0x00, 0x00, };
