#define dvis_width 8
#define dvis_height 6
static unsigned char dvis_bits[] = {
   0x3c, 0x04, 0x20, 0x3c, 0x00, 0x00 };
