#define enter_width 10
#define enter_height 7
static unsigned char enter_bits[] = {
   0x1c, 0x00, 0x1c, 0x00, 0x68, 0x00, 0x3e, 0x00, 0x09, 0x00, 0x14, 0x00,
   0x36, 0x00 };
