#define mb_width 11
#define mb_height 7
static unsigned char mb_bits[] = {
   0xff, 0x00, 0x81, 0x00, 0xb5, 0x00, 0xb1, 0x00, 0x83, 0x00, 0x95, 0x00,
   0xff, 0x00 };
