#define stb_width 12
#define stb_height 7
static unsigned char stb_bits[] = {
   0x00, 0x00, 0x00, 0x00, 0x00, 0x00, 0xff, 0x01, 0x01, 0x01, 0x5d, 0x01,
   0x01, 0x01 };
