#define temp_width 11
#define temp_height 7
static unsigned char temp_bits[] = {
   0x83, 0x00, 0x41, 0x01, 0x87, 0x00, 0x01, 0x00, 0x03, 0x00, 0x01, 0x00,
   0x07, 0x00 };
